# xmcd CD database file
#
# Track frame offsets:
#	150
#	2860
#	24086
#	30559
#	33432
#	40516
#	66543
#	73969
#	114200
#	117856
#	120973
#	132622
#	146749
#	160956
#	172264
#	183959
#	185377
#	188261
#	196583
#	198715
#	209878
#	212717
#	216562
#	231599
#	243576
#	245863
#	247728
#	250926
#	255841
#
# Disc length: 3581 seconds
#
# Revision: 0
# Processed by: cddbd v1.5.2PL0 Copyright (c) Steve Scherf et al.
# Submitted via: CDex 1.70beta2
#
DISCID=b00dfb1d
DTITLE=Stefan Grossman - Holy Blues of Rev. Gary Davis, Lesson 1
DYEAR=2001
DGENRE=Blues
TTITLE0=Discussion of Holy Blues
TTITLE1=Rev. Gary Davis performing Death Don't Have No Mercy
TTITLE2=Talk on playing in minor keys and Rev. Davis' approach
TTITLE3=Tuning
TTITLE4=Talk on Rev. Gary Davis' guitar
TTITLE5=Teaching of accompaniment to verse of Death Don't Have No Mercy
TTITLE6=Teaching of variations of Em runs of Death Don't Have No Mercy
TTITLE7=Teaching of guitar break of Death Don't Have No Mercy
TTITLE8=Plays guitar break of Death Don't Have No Mercy
TTITLE9=Closing thoughts on Death Don't Have No Mercy
TTITLE10=Rev. Gary Davis performance of Keep Your Lamp Trimmed and Burning
TTITLE11=Intro to Let Us Get Together
TTITLE12=Rev. Gary Davis performace of Let Us Get Together
TTITLE13=Explanation of chord structure for Let Us Get Together
TTITLE14=Teaching of first six bars of introduction of Let Us Get Together
TTITLE15=Plays slowly first six bars of introduction of Let Us Get Together
TTITLE16=Teaching from seventh bar of introduction of Let Us Get Together
TTITLE17=Discussion of Rev. Davis' playing in the key of G
TTITLE18=Plays slowly introduction of Let Us Get Together
TTITLE19=Teaching from eleventh bar of introduction of Let Us Get Together
TTITLE20=Plays slowly introduction of Let Us Get Together
TTITLE21=Discussion on guitar break of Let Us Get Together
TTITLE22=Discussion of chord positions used in guitar break of Let Us Get Together
TTITLE23=Plays slowly guitar break of Let Us Get Together
TTITLE24=Plays end lick of guitar break of Let Us Get Together
TTITLE25=Talk on guitar break
TTITLE26=Plays slowly guitar break of Let Us Get Together
TTITLE27=Closing thoughts on Let Us Get Together
TTITLE28=Another Rev. Gary Davis performance of Let Us Get Together
EXTD=YEAR: 2001
EXTT0=
EXTT1=
EXTT2=
EXTT3=
EXTT4=
EXTT5=
EXTT6=
EXTT7=
EXTT8=
EXTT9=
EXTT10=
EXTT11=
EXTT12=
EXTT13=
EXTT14=
EXTT15=
EXTT16=
EXTT17=
EXTT18=
EXTT19=
EXTT20=
EXTT21=
EXTT22=
EXTT23=
EXTT24=
EXTT25=
EXTT26=
EXTT27=
EXTT28=
PLAYORDER=
